<?xml version="1.0" encoding="utf-8"?>
<!-- Generator: Adobe Illustrator 25.3.1, SVG Export Plug-In . SVG Version: 6.00 Build 0)  -->
<svg version="1.1" id="Layer_1" xmlns="http://www.w3.org/2000/svg" xmlns:xlink="http://www.w3.org/1999/xlink" x="0px" y="0px"
	 viewBox="0 0 134 32" style="enable-background:new 0 0 134 32;" xml:space="preserve">
<style type="text/css">
	.st0{fill:#8FC63F;}
	.st1{fill:#0B1A3D;}
</style>
<g>
	<path class="st0" d="M91,21L85.2,4.9h2.6l2.8,8c0.8,2.4,1.6,4.7,2,6.2h0c0.3-1.4,1.2-3.8,2-6.1l2.9-8h2.5l-6,16.2H91z"/>
	<path class="st0" d="M107.3,12.2c0-1,0-2.1,0-3h2.2c0.1,0.3,0.1,1.5,0.1,1.9c0.5-1,1.4-2.1,3.7-2.1c2.3,0,4,1.4,4,4.5V21h-2.3v-7.3
		c0-1.7-0.6-2.9-2.4-2.9c-2.1,0-3,1.5-3,3.8V21h-2.3V12.2z"/>
	<path class="st0" d="M122.1,15.5c0,2.2,1.1,3.9,3.1,3.9c1.8,0,2.3-0.9,2.7-1.7h2.3c-0.5,1.5-1.7,3.6-5.1,3.6c-3.8,0-5.3-3-5.3-6.1
		c0-3.6,1.8-6.3,5.4-6.3c3.9,0,5.2,3,5.2,5.7c0,0.4,0,0.7,0,1H122.1z M128.1,14c0-1.8-0.9-3.3-2.9-3.3c-2,0-2.8,1.4-3,3.3H128.1z"/>
	<g>
		<path class="st0" d="M104.9,13.9c0,0.6,0,1.3,0,1.9c0,0.6-0.2,1-0.7,1.3c-0.2,0.1-0.2,0.2-0.2,0.4c0,1,0,2,0,2.9
			c0,0.2,0,0.3,0,0.5c0,0.1-0.1,0.1-0.1,0.1c-0.1,0-0.1,0-0.2,0c-0.6,0-1.2,0-1.8,0c-0.1,0-0.1,0-0.2,0c-0.1,0-0.1-0.1-0.1-0.1
			c0-0.1,0-0.2,0-0.4c0-0.9,0-1.9,0-2.8c0-0.1,0-0.2,0-0.4c0-0.1,0-0.1-0.1-0.2c-0.1,0-0.1-0.1-0.2-0.1c-0.4-0.3-0.6-0.6-0.6-1.1
			c0-1.3,0-2.7,0-4c0-0.4,0.1-0.7,0.5-1c0.2-0.2,0.4-0.3,0.7-0.4c0.6-0.2,1.2-0.2,1.8,0c0.3,0.1,0.6,0.2,0.8,0.4
			c0.3,0.3,0.5,0.6,0.5,1C104.9,12.6,104.9,13.2,104.9,13.9z"/>
		<path class="st0" d="M104.2,8.4c0.1,0.7-0.5,1.5-1.4,1.5c-1,0-1.4-0.7-1.5-1.5c0.1-0.8,0.5-1.4,1.5-1.4
			C103.7,6.9,104.3,7.7,104.2,8.4z"/>
	</g>
</g>
<g>
	<path class="st1" d="M41.9,25.9h-2.2v1.7h2.4L42,28h-2.8v-4.4H42v0.4h-2.3v1.5h2.2V25.9z"/>
	<path class="st1" d="M48.5,26.1c0-0.8,0-1.7,0-2.1h0c-0.2,0.6-1,2.7-1.5,4.1h-0.4c-0.4-1.1-1.2-3.4-1.4-4.1h0c0,0.5,0,1.5,0,2.3V28
		h-0.4v-4.4h0.7c0.6,1.4,1.2,3.3,1.4,3.8h0c0.1-0.4,0.9-2.4,1.5-3.8h0.7V28h-0.4V26.1z"/>
	<path class="st1" d="M51.9,23.7h1.6c0.8,0,1.4,0.5,1.4,1.2c0,0.8-0.6,1.3-1.4,1.3h-1.1V28h-0.5V23.7z M52.4,25.8h1.1
		c0.7,0,1-0.3,1-0.9c0-0.6-0.4-0.9-0.9-0.9h-1.1V25.8z"/>
	<path class="st1" d="M57.6,23.7H58v4h2.3L60.3,28h-2.7V23.7z"/>
	<path class="st1" d="M66.4,25.8c0,1.2-0.7,2.3-2,2.3c-1.3,0-2-1-2-2.3c0-1.2,0.7-2.3,2-2.3C65.6,23.6,66.4,24.5,66.4,25.8z
		 M62.9,25.8c0,1,0.5,1.9,1.5,1.9c1.1,0,1.5-0.9,1.5-1.9c0-1-0.5-1.8-1.5-1.8C63.3,24,62.9,24.9,62.9,25.8z"/>
	<path class="st1" d="M70,28v-1.6c0,0,0-0.1,0-0.1l-1.6-2.6h0.5c0.4,0.7,1.1,2,1.3,2.3c0.2-0.3,0.9-1.6,1.4-2.3h0.5l-1.6,2.7
		c0,0,0,0.1,0,0.1V28H70z"/>
	<path class="st1" d="M78.2,26.1c0-0.8,0-1.7,0-2.1h0c-0.2,0.6-1,2.7-1.5,4.1h-0.4c-0.4-1.1-1.2-3.4-1.4-4.1h0c0,0.5,0,1.5,0,2.3V28
		h-0.4v-4.4h0.7c0.6,1.4,1.2,3.3,1.4,3.8h0c0.1-0.4,0.9-2.4,1.5-3.8h0.7V28h-0.4V26.1z"/>
	<path class="st1" d="M84.3,25.9h-2.2v1.7h2.4L84.5,28h-2.8v-4.4h2.8v0.4h-2.3v1.5h2.2V25.9z"/>
	<path class="st1" d="M87.2,28v-4.4h0.6c0.7,1,2.2,3.4,2.4,3.8h0c0-0.6,0-1.3,0-2v-1.9h0.4V28H90c-0.6-1-2.2-3.4-2.5-3.9h0
		c0,0.5,0,1.2,0,2V28H87.2z"/>
	<path class="st1" d="M94.5,24.1h-1.4v-0.4h3.3v0.4H95v4h-0.5V24.1z"/>
	<path class="st1" d="M105.7,28h-0.4c0-0.1,0-0.3,0-0.7c-0.2,0.3-0.5,0.7-1.4,0.7c-1.3,0-1.9-1-1.9-2.2c0-1.3,0.7-2.3,2-2.3
		c1,0,1.6,0.5,1.7,1.3h-0.4c-0.2-0.6-0.6-0.9-1.3-0.9c-1.1,0-1.5,0.8-1.5,1.9c0,1,0.4,1.8,1.5,1.8c1,0,1.3-0.7,1.3-1.6v0h-1.3v-0.4
		h1.8V28z"/>
	<path class="st1" d="M109,26v2h-0.4v-4.4h1.6c0.9,0,1.3,0.5,1.3,1.2c0,0.6-0.3,0.9-0.8,1c0.4,0.1,0.7,0.4,0.7,1.1v0.2
		c0,0.3,0,0.7,0.1,0.9h-0.4c-0.1-0.2-0.1-0.5-0.1-0.9V27c0-0.7-0.2-1-1-1H109z M109,25.7h1c0.7,0,1.1-0.3,1.1-0.8
		c0-0.5-0.3-0.8-1-0.8H109V25.7z"/>
	<path class="st1" d="M118.1,25.8c0,1.2-0.7,2.3-2,2.3c-1.3,0-2-1-2-2.3c0-1.2,0.7-2.3,2-2.3C117.3,23.6,118.1,24.5,118.1,25.8z
		 M114.5,25.8c0,1,0.5,1.9,1.5,1.9c1.1,0,1.5-0.9,1.5-1.9c0-1-0.5-1.8-1.5-1.8C115,24,114.5,24.9,114.5,25.8z"/>
	<path class="st1" d="M121.2,23.7v2.6c0,1.1,0.6,1.4,1.2,1.4c0.7,0,1.2-0.3,1.2-1.4v-2.6h0.5v2.6c0,1.4-0.8,1.8-1.7,1.8
		c-0.9,0-1.7-0.5-1.7-1.8v-2.7H121.2z"/>
	<path class="st1" d="M127.1,23.7h1.6c0.8,0,1.4,0.5,1.4,1.2c0,0.8-0.6,1.3-1.4,1.3h-1.1V28h-0.5V23.7z M127.5,25.8h1.1
		c0.7,0,1-0.3,1-0.9c0-0.6-0.4-0.9-0.9-0.9h-1.1V25.8z"/>
</g>
<g>
	<path class="st1" d="M39.2,21V4.9h3.1c2.3,3.8,7.1,11.5,7.9,13.3h0c-0.2-2-0.1-4.6-0.1-7.2v-6h2.2V21h-2.9
		c-2.1-3.4-7.1-11.9-8.1-13.7h0c0.1,1.8,0.1,4.6,0.1,7.5V21H39.2z"/>
	<path class="st1" d="M57.6,15.5c0,2.2,1.1,3.9,3.1,3.9c1.8,0,2.3-0.9,2.7-1.7h2.3c-0.5,1.5-1.7,3.6-5.1,3.6c-3.8,0-5.3-3-5.3-6.1
		c0-3.6,1.8-6.3,5.4-6.3c3.9,0,5.2,3,5.2,5.7c0,0.4,0,0.7,0,1H57.6z M63.6,14c0-1.8-0.9-3.3-2.9-3.3c-2,0-2.8,1.4-3,3.3H63.6z"/>
	<path class="st1" d="M69.7,9.2c1.4,5.4,2.2,8.5,2.4,9.8h0c0.2-1.1,1-3.9,2.6-9.8h2.2c1.8,6.5,2.3,8.4,2.5,9.6h0
		c0.3-1.3,0.7-3,2.5-9.6h2.3L80.6,21h-2.5c-1.1-4.4-2.1-8-2.4-9.4h0c-0.2,1.3-1.2,4.8-2.5,9.4h-2.5L67.3,9.2H69.7z"/>
</g>
<g>
	<polygon class="st1" points="22.9,28.3 11,7.8 11,7.7 8.6,3.7 8.6,28.3 11,28.3 11,12.6 20.1,28.3 	"/>
	<polygon class="st0" points="9.5,3.7 21.4,24.2 21.4,24.3 23.8,28.3 23.8,3.7 21.4,3.7 21.4,19.4 12.3,3.7 	"/>
	<path class="st1" d="M30.6,1.6v28.9H1.8V1.6H30.6 M32.2,0H0.2V32h32.1V0L32.2,0z"/>
</g>
</svg>
